<?xml version="1.0" encoding="utf-8"?>
<!-- Generator: Adobe Illustrator 19.2.1, SVG Export Plug-In . SVG Version: 6.00 Build 0)  -->
<svg version="1.1" id="sentry-logo" xmlns="http://www.w3.org/2000/svg" xmlns:xlink="http://www.w3.org/1999/xlink" x="0px"
	 y="0px" viewBox="0 0 17.9 16" style="enable-background:new 0 0 17.9 16;" xml:space="preserve">
<style type="text/css">
	.st0{fill:#625471;}
</style>
<path class="st0" d="M10.4,0.8C10.1,0.3,9.5,0,8.9,0C8.4,0,7.8,0.3,7.5,0.8L5.2,4.9l0.6,0.3C7.5,6.2,9,7.7,10,9.4
	c0.9,1.5,1.4,3.3,1.5,5.1H9.9c-0.1-1.5-0.6-2.9-1.3-4.2C7.7,8.7,6.5,7.4,4.9,6.6L4.3,6.3l-2.2,3.8l0.6,0.3c1.5,0.9,2.5,2.4,2.7,4.1
	H1.7c-0.1,0-0.2-0.1-0.2-0.1c-0.1-0.1-0.1-0.2,0-0.3l1-1.8c-0.4-0.3-0.8-0.5-1.2-0.7l-1,1.8c-0.3,0.5-0.3,1.2,0,1.8
	C0.5,15.7,1.1,16,1.6,16h5.2v-0.7c0-1.2-0.3-2.4-0.9-3.4C5.5,11,4.8,10.3,4,9.7l0.8-1.4C5.9,9,6.7,9.9,7.4,11
	c0.8,1.3,1.2,2.8,1.1,4.2V16h4.4v-0.7c0-2.3-0.6-4.5-1.7-6.4c-1-1.8-2.5-3.3-4.2-4.3l1.7-2.9c0.1-0.1,0.1-0.1,0.2-0.1
	c0.1,0,0.2,0,0.2,0.1l7.3,12.6c0.1,0.1,0,0.3-0.1,0.4c0,0-0.1,0-0.1,0h-1.7c0,0.5,0,0.9,0,1.4h1.7c0.6,0,1.1-0.3,1.4-0.8
	c0.3-0.5,0.3-1.2,0-1.7L10.4,0.8z"/>
</svg>
